<?xml version="1.0" standalone="no"?>
<!DOCTYPE svg PUBLIC "-//W3C//DTD SVG 20010904//EN"
 "http://www.w3.org/TR/2001/REC-SVG-20010904/DTD/svg10.dtd">
<svg version="1.0" xmlns="http://www.w3.org/2000/svg"
 width="260.000000pt" height="260.000000pt" viewBox="0 0 260.000000 260.000000"
 preserveAspectRatio="xMidYMid meet">
<metadata>
Created by potrace 1.11, written by Peter Selinger 2001-2013
</metadata>
<g transform="translate(0.000000,260.000000) scale(0.100000,-0.100000)"
fill="#000000" stroke="none">
<path d="M2089 1453 c-13 -15 -12 -15 9 -4 23 12 28 21 13 21 -5 0 -15 -7 -22
-17z"/>
<path d="M760 1435 c-8 -9 -8 -15 -2 -15 12 0 26 19 19 26 -2 2 -10 -2 -17
-11z"/>
<path d="M2044 1425 c-10 -8 -14 -15 -8 -15 6 0 17 7 24 15 16 19 9 19 -16 0z"/>
<path d="M725 1410 c5 -14 3 -20 -3 -16 -20 12 -43 -5 -36 -28 6 -19 5 -19
-10 -7 -9 8 -15 20 -12 28 7 17 -2 17 -20 -2 -9 -8 -20 -15 -27 -15 -6 0 -2 7
9 16 19 15 19 15 -1 6 -14 -7 -28 -6 -50 4 -17 8 -22 9 -11 2 72 -49 77 -65
37 -117 l-18 -23 -83 61 -84 61 -208 0 -208 0 0 -690 0 -690 1300 0 1300 0 0
689 0 690 -197 3 c-196 3 -198 3 -238 -21 -22 -14 -59 -35 -82 -47 -23 -13
-53 -30 -66 -39 -23 -15 -25 -14 -50 24 l-26 40 30 25 c17 14 35 26 40 26 6 0
7 5 4 10 -4 6 -12 5 -21 -4 -8 -9 -21 -13 -28 -10 -8 3 -17 -3 -21 -15 -7 -24
-31 -18 -38 11 -6 22 -25 21 -40 -3 -7 -11 1 -31 28 -74 72 -112 115 -256 115
-386 l0 -59 -725 0 -725 0 0 59 c0 129 43 274 113 384 22 34 34 64 31 74 -4
13 -3 14 3 5 7 -10 13 -9 25 5 14 16 15 19 1 32 -13 12 -14 11 -8 -9z"/>
<path d="M1822 1405 c11 -13 26 -21 32 -18 6 4 5 8 -4 11 -8 3 -19 11 -23 18
-4 8 -12 14 -17 14 -6 0 0 -11 12 -25z"/>
<path d="M2237 1413 c-12 -12 -7 -22 8 -17 8 4 15 10 15 15 0 11 -14 12 -23 2z"/>
<path d="M1916 1385 c4 -8 8 -15 10 -15 2 0 4 7 4 15 0 8 -4 15 -10 15 -5 0
-7 -7 -4 -15z"/>
</g>
</svg>
