<?xml version="1.0" standalone="no"?>
<!DOCTYPE svg PUBLIC "-//W3C//DTD SVG 20010904//EN"
 "http://www.w3.org/TR/2001/REC-SVG-20010904/DTD/svg10.dtd">
<svg version="1.0" xmlns="http://www.w3.org/2000/svg"
 width="260.000000pt" height="260.000000pt" viewBox="0 0 260.000000 260.000000"
 preserveAspectRatio="xMidYMid meet">
<metadata>
Created by potrace 1.11, written by Peter Selinger 2001-2013
</metadata>
<g transform="translate(0.000000,260.000000) scale(0.100000,-0.100000)"
fill="#000000" stroke="none">
<path d="M63 1482 l-63 -3 0 -739 0 -740 1300 0 1300 0 0 740 0 740 -137 1
c-215 2 -196 7 -323 -94 l-85 -67 -28 32 c-67 80 -69 83 -47 106 l20 21 -41
-1 c-27 0 -37 -3 -28 -9 8 -5 9 -9 3 -9 -5 0 -15 5 -22 12 -8 8 -15 8 -28 -3
-12 -9 -15 -10 -10 -1 5 9 -4 12 -34 12 l-42 0 55 -59 c109 -118 186 -272 221
-444 9 -42 16 -85 16 -97 0 -20 -1 -20 -800 -20 -778 0 -800 1 -800 19 0 38
31 180 54 247 41 122 102 227 178 310 l38 41 -48 -1 c-33 -1 -46 -5 -44 -14 1
-8 -2 -11 -8 -7 -6 3 -8 10 -5 14 2 5 -6 9 -20 9 -14 0 -22 -4 -20 -9 3 -4 1
-11 -5 -14 -6 -4 -9 -1 -8 7 2 7 -7 14 -19 16 -13 2 -23 -1 -23 -7 0 -6 6 -8
13 -5 23 8 16 -28 -15 -83 -17 -29 -33 -55 -37 -58 -5 -2 -74 31 -154 74 -156
84 -175 89 -304 83z"/>
</g>
</svg>
